# xmcd
#
# Track frame offsets:
#	150
#	13622
#	26294
#	46632
#	58495
#	74981
#	91923
#	108595
#	129400
#
# Disc length: 1972 seconds
#
# Revision: 0
# Processed by: cddbd v1.5.1PL0 Copyright (c) Steve Scherf et al.
# Submitted via: dBpowerAMP V4.0
#
DISCID=7807b209
DTITLE=Moonshine Mountain Boys - Moonshine Mountain Boys
DYEAR=1900
DGENRE=
TTITLE0=Better By the Beer
TTITLE1=Double Shot
TTITLE2=Lonesome Whistle
TTITLE3=Sixteen Tons
TTITLE4=Tired
TTITLE5=(9/11) The Day I Learned to Sing the Blues
TTITLE6=Fallen
TTITLE7=One More Road
TTITLE8=Carolina Blue
EXTD=
EXTT0=
EXTT1=
EXTT2=
EXTT3=
EXTT4=
EXTT5=
EXTT6=
EXTT7=
EXTT8=
PLAYORDER=
